Coordinates
nRows=5
nColumns=38

# SIMM Motion File Header:
name Coordinates
datacolumns 38
datarows 5
otherdata 1
range 2.51500000000000010000 2.51900000000000010000

Units are S.I. units (second, meters, Newtons, ...)
Angles are in degrees.

endheader
time	pelvis_tilt	pelvis_list	pelvis_rotation	pelvis_tx	pelvis_ty	pelvis_tz	hip_flexion_r	hip_adduction_r	hip_rotation_r	knee_angle_r	ankle_angle_r	subtalar_angle_r	mtp_angle_r	hip_flexion_l	hip_adduction_l	hip_rotation_l	knee_angle_l	ankle_angle_l	subtalar_angle_l	mtp_angle_l	lumbar_extension	lumbar_bending	lumbar_rotation	arm_flex_r	arm_add_r	arm_rot_r	elbow_flex_r	pro_sup_r	wrist_flex_r	wrist_dev_r	arm_flex_l	arm_add_l	arm_rot_l	elbow_flex_l	pro_sup_l	wrist_flex_l	wrist_dev_l
      2.51500000000000010000	      0.18840357444184669000	      0.25175624628753329000	     -5.51462487288991010000	      0.71598434273638811000	      1.04494493822865090000	     -0.29289466110517470000	    -11.55877338096245500000	      1.65183520468641930000	      4.30120495704340740000	    -30.04169236674322000000	    -15.79617515856295600000	      0.00000000000010061400	     -0.00000000000014033395	     16.75027206622500800000	      3.32024629291872840000	      5.02479724473574320000	     -9.80612739817690660000	      2.91220179514283560000	     -0.00000000000002009230	     -0.00000000000002264623	    -12.79232080018368800000	     -2.81541122773066070000	     11.83359433588321400000	    -13.45278924612034500000	    -26.81992019247885400000	    -11.32330399830396500000	    105.79547252256624000000	     72.96949928909165800000	     -0.00000000000000953256	     -0.00000000000000149939	    -38.76093731927635800000	    -15.55665413620886300000	    -11.14484186364604700000	     98.46738644929443800000	     89.38197564721230000000	     -0.00000000000001044826	      0.00000000000000078040
      2.51600000000000000000	      0.22871712504661418000	      0.25353886904533146000	     -5.52445707229659180000	      0.71605278945300965000	      1.04472996083973560000	     -0.29288126291485389000	    -11.46178963550662600000	      1.63853386356012810000	      4.28717872115527320000	    -30.45438037628241900000	    -15.94224748848661500000	      0.00000000000010139302	     -0.00000000000014105426	     16.70662373545246000000	      3.34613331332630270000	      4.98739954189713240000	     -9.95440703457598990000	      2.92509935094373310000	     -0.00000000000002017849	     -0.00000000000002262851	    -12.81655145407870400000	     -2.83692285810027340000	     11.80354940068675900000	    -13.45143451967304300000	    -26.79642873729415300000	    -11.29658962163850000000	    105.76808630934197000000	     72.98074157425045900000	     -0.00000000000000956805	     -0.00000000000000140811	    -38.71018814617517700000	    -15.56293291499434900000	    -11.14744518558148200000	     98.47220883243989000000	     89.39170577172571100000	     -0.00000000000001047905	      0.00000000000000079597
      2.51699999999999990000	      0.26784696730430591000	      0.25593213033756262000	     -5.53367656260662070000	      0.71611970855205886000	      1.04450403231594070000	     -0.29286768420254389000	    -11.36147803794423300000	      1.62504133752975940000	      4.27221742907129440000	    -30.86986886150295500000	    -16.08921879396647000000	      0.00000000000010216642	     -0.00000000000014177497	     16.66476490530659400000	      3.37280078492914990000	      4.95018582576101980000	    -10.10734838509526900000	      2.92831486618578470000	     -0.00000000000002026270	     -0.00000000000002260480	    -12.83957086057064100000	     -2.85918437875474170000	     11.77245729576109500000	    -13.45075187505542600000	    -26.77190751568239000000	    -11.26960742607292500000	    105.73975991899857000000	     72.99201378598820600000	     -0.00000000000000960373	     -0.00000000000000131619	    -38.65740162740429000000	    -15.57057929605558400000	    -11.14889193535337200000	     98.47618237636263000000	     89.40149594754939200000	     -0.00000000000001051003	      0.00000000000000080868
      2.51800000000000020000	      0.30590874447846972000	      0.25888947985729516000	     -5.54227728581121410000	      0.71618519544219084000	      1.04426736133082090000	     -0.29285391020320889000	    -11.25805854755432700000	      1.61137390669130310000	      4.25630754920896860000	    -31.28802246871549300000	    -16.23702922844682200000	      0.00000000000010294851	     -0.00000000000014249594	     16.62444903313139800000	      3.40021062466399910000	      4.91344453681541800000	    -10.26467937697555200000	      2.92515797929117300000	     -0.00000000000002036062	     -0.00000000000002258340	    -12.86152737446304800000	     -2.88216240942473250000	     11.74031066690232400000	    -13.45073444530345300000	    -26.74641377261830400000	    -11.24234693738212200000	    105.71055777385286000000	     73.00329608116045700000	     -0.00000000000000963926	     -0.00000000000000122418	    -38.60261931439867300000	    -15.57960157034414200000	    -11.14920499256475000000	     98.47939189438420700000	     89.41133041486806100000	     -0.00000000000001054086	      0.00000000000000081955
      2.51900000000000010000	      0.34346001598435516000	      0.26242621845586384000	     -5.55030408757632810000	      0.71624945469435508000	      1.04402074546805120000	     -0.29283985316408784000	    -11.15227085314659300000	      1.59742449557893720000	      4.23945340935511440000	    -31.70855928274547300000	    -16.38564478915177600000	      0.00000000000010373233	     -0.00000000000014321714	     16.58487973645075200000	      3.42841618978533800000	      4.87740019443583250000	    -10.42594738687164500000	      2.91909824098521660000	     -0.00000000000002045104	     -0.00000000000002256403	    -12.88304635998203600000	     -2.90594326330074940000	     11.70712673821018000000	    -13.45131910577073100000	    -26.72002162642745700000	    -11.21479560770006000000	    105.68057253481219000000	     73.01453344281114300000	     -0.00000000000000967441	     -0.00000000000000113189	    -38.54583793420423600000	    -15.59001579786666300000	    -11.14840440752981000000	     98.48197844469696300000	     89.42117367246453300000	     -0.00000000000001057131	      0.00000000000000082784
